<svg id="Layer_2" data-name="Layer 2" xmlns="http://www.w3.org/2000/svg" viewBox="0 0 556.66 757.26">
  <g id="LOGO">
    <g id="Laurel_leaves" data-name="Laurel leaves">
      <g id="Right">
        <g>
          <path d="M259.05,478.12c-29.85,9.92-56.86,14.01-57.18,14.06l-.73.11-.11.73c-.01.07-1.04,6.95-2.84,13.01-1.74,5.86-11.06,14.04-11.15,14.12l-2.22,1.93,2.94-.18c.28-.02,7.16-.59,43.34-15.57,11.54-4.78,28.05-12.27,45.03-20.18-5.1-2.38-10.21-4.78-15.2-7.15l-1.87-.89Z" fill="#000" stroke-width="0"></path>
          <path d="M546.43,250.56c-3.26-35.03-15.7-69.87-36.99-103.55-22.64-35.82-49.53-61.17-68.11-76.13C377.47,19.45,309.39,3.95,296.47,1.38c-2.13-.62-3.87-1.15-4.36-1.3-1.03-.33-1.36.42-1.41.57-.33.91.55,1.27.98,1.44,6.46,2.63,9.08,4.6,10.14,5.78,3.28,3.69,27.93,21.71,32.96,24.1,4.12,1.97,6.95,2.04,7.95,2l1.09.67c-1.15.25-2.26.75-2.75,1.73-.57,1.16-.12,2.58,1.33,4.23,4.39,4.93,13.14,4.39,14.87,4.23l2.05.94c-1.05.25-2.24.6-3.59,1.07-2.06.71-2.49,1.84-2.49,2.65,0,4.32,13.35,9.03,13.48,9.08,4.29,1.47,7.13,1.37,8.28,1.22l1.76,1.62c-1.12.01-2.77.02-5.17-.01-.03,0-.07,0-.1,0-3,0-3.56,1.76-3.67,2.53-.48,3.65,5.3,9.6,10.66,10.97,6,1.53,10.73,1.48,12.13,1.41l2.62,2.24c-1.75.13-4.56.15-8.34-.35-3.54-.48-4.55,1.01-4.85,1.93-.94,2.95,3.05,7.73,9.08,10.88,7.87,4.12,19.36,6.87,21.67,7.39l.35.52c-1.87-.13-5.25-.56-10.42-1.9-5.28-1.37-6.78.7-7.19,1.65-1.34,3.16,2.31,8.06,9.08,12.2,9.94,6.09,23.34,8.65,26.48,9.18l.04.17c-2.33.02-7.53-.12-12.26-1.56-7.25-2.21-10.96-2.32-12.42-.36-1.13,1.51-.6,3.81,1.66,7.24,5.91,8.97,29.04,16.01,33.22,17.23l.14.8c-1.4-.23-4.91-1.06-13.59-3.96-9.34-3.12-12.46-1.56-13.44.29-1.43,2.73,1.34,7.08,7.41,11.63,9.8,7.33,25.43,12.06,29.01,13.08l.03,1.46c-1.35-.14-5.11-.94-15.36-4.58-8.79-3.11-13.56-3.44-15.01-1.03-2,3.32,3.94,9.56,7.66,12.99,7.95,7.31,25.63,14.94,29.87,16.71l-.21.57c-1.25-.19-5.03-1.1-16.22-5.05-10.14-3.57-15.37-4.03-16.97-1.48-.59.94-2.38,3.81,8.61,14.67,8.56,8.46,28.01,17.74,31.19,19.23l.13.45c-4.09-1.3-14.69-4.99-24.36-11.02-7.17-4.47-10.44-2.8-11.76-1.4-2.74,2.91-1.67,9.13,2.59,15.13,6.57,9.26,30.74,27.77,34.55,30.67l-.17,1.18c-3.13-1.31-12.43-5.7-24.62-15.95-7.47-6.28-11.39-5.59-13.36-3.9-3.94,3.38-2.29,12.75,1.73,19.38,6.25,10.32,27.19,28.49,31.32,32.03l-.53.8c-3.43-1.9-16.96-9.58-21.96-14.97-4.34-4.67-11.82-8.59-16.34-6.78-1.85.74-4.03,2.73-3.96,8.04.17,12.03,24.02,42.01,27.57,46.4l-.37.76c-3.33-2.18-14.68-9.9-20.24-17.33-1.2-1.61-7.52-9.62-13.71-8.74-3.02.43-5.39,2.87-7.04,7.27-6.43,17.11,16.03,52.5,19.94,58.45l-.89.65c-2.14-1.67-10.02-8.22-19.01-20.38-3.23-4.36-8.53-8.96-13.82-8.96-.1,0-.21,0-.31,0-3.27.11-6.05,1.93-8.27,5.4-10.03,15.63,8.37,49.34,10.01,52.28.12.77.13,1.62.04,2.04-.33-.19-1.06-.75-2.4-2.44-1.23-1.55-2.62-4.01-4.24-6.85-5.43-9.58-12.88-22.71-23.83-18.19-10.5,4.31-12.86,46.05-13.33,70.84l-8.33,9.12c-1.38.92-18.09,11.8-56.41,27.76,4.6,1.88,9.56,3.73,14.74,5.51l1.94.66c25.33-12.01,47.24-22.7,49.63-23.86l108.31-.08h.29l.25-.16c.26-.17,25.99-17.03,49.82-50.12,21.99-30.54,46.84-81.56,40.34-151.19ZM449.23,167.06c-.05-.07-.13-.3-.04-.57.02-.05.04-.1.07-.15h.65s0-.01,0-.01l-.68.73Z" fill="#000" stroke-width="0"></path>
        </g>
        <path d="M350.4,443.17s44.04,3.96,90.93-6.64c46.9-10.6,52.59-29.91,17.5-30.09-35.08-.15-59.81,1.64-59.81,1.64l-48.63,35.09Z" fill="#fff" stroke="#231f20"></path>
        <path d="M434.88,369.65s30.49-.1,57.28-6.6c39.43-9.54,49.39-32.94,7.68-27.83-41.72,5.13-45.4,4.95-45.4,4.95l-19.57,29.47Z" fill="#fff" stroke="#231f20"></path>
        <path d="M471.14,300.89s33.61-5.72,53.59-17.42c19.97-11.7,20.61-38.75-3.77-28.47-25.33,10.67-43.35,11.21-43.35,11.21l-6.47,34.68Z" fill="#fff" stroke="#231f20"></path>
        <path d="M456.01,337.27s27.28-3.61,50.51-10.6c23.25-7.01,43.41-25.76,29.55-31.7-8.43-3.65-24.03-1.11-32.91.98-8.89,2.1-33.08,7.58-33.08,7.58l-14.07,33.74Z" fill="#fff" stroke="#231f20"></path>
        <path d="M477.71,264.15s21.23-3.89,41.41-19.35c14.92-11.45,15.34-26.74,13.44-30.89-2.67-5.82-14.46-8.02-24.27.53-8.26,7.19-29.97,17.37-29.97,17.37l-.61,32.34Z" fill="#fff" stroke="#231f20"></path>
        <path d="M477.83,228.84s18.69-8.58,30.79-22.05c12.07-13.47,17-28.68,4.81-30.69-8.38-1.39-16.67,6.72-20.19,9.54-3.52,2.81-19.33,13.2-19.33,13.2l3.93,30.01Z" fill="#fff" stroke="#231f20"></path>
        <path d="M473.24,195.75s24.43-15,29.88-23.06c5.45-8.05,6.51-21.96-4.82-21.86-11.33.1-14.29,9.96-17.07,12.4-7.59,6.66-13.81,9.04-13.81,9.04l5.82,23.48Z" fill="#fff" stroke="#231f20"></path>
        <path d="M454.46,141.47c1.17,1.53,13.15-9.78,15.93-16.76,2.78-6.99,4.62-15.95-2.64-17.94-6.19-1.69-12.62,1.11-16.9,5.63-4.27,4.53-9.5,6.96-9.5,6.96,0,0,11.36,19.86,13.11,22.12" fill="#fff" stroke="#231f20"></path>
        <path d="M439.88,116.92s10.91-6.46,14.74-13.94c4.47-8.74-.49-19.22-11.04-12.68-10.16,6.32-8.88,6.83-12.56,8.88-3.66,2.05-3.05,1.82-3.05,1.82l11.91,15.91Z" fill="#fff" stroke="#231f20"></path>
        <path d="M426.62,99.26s5.91-4.96,10.61-12.37c3.88-6.14-.97-23.33-14.92-11.96-8.28,6.75-9.72,8.79-9.72,8.79l14.03,15.54Z" fill="#fff" stroke="#231f20"></path>
        <path d="M410.58,81.67s5.43-4.86,7.98-11.51c2.59-6.73-.86-16.28-9.88-9.56-9.01,6.7-11.6,8.28-11.6,8.28l13.5,12.8Z" fill="#fff" stroke="#231f20"></path>
        <path d="M394.87,66.77s2.98-1.35,5.53-8c2.59-6.74-.86-16.28-9.88-9.57-9.01,6.71-9.16,6.35-9.16,6.35l13.51,11.22Z" fill="#fff" stroke="#231f20"></path>
        <path d="M379.33,53.72s1.87.96,4.41-5.68c2.59-6.73-.87-16.28-9.89-9.57-9.01,6.7-8.28,5.56-8.28,5.56l13.75,9.7Z" fill="#fff" stroke="#231f20"></path>
        <path d="M465.72,168.24s14.27-5.82,18.98-13.39c4.7-7.57,8.27-19.47,2.36-27.57-4.37-5.99-12.55-3.32-16.54,2.1-4,5.41-6.01,8.25-10.53,11.59-4.5,3.35-3.96,3.83-3.96,3.83l9.68,23.43Z" fill="#fff" stroke="#231f20"></path>
        <path d="M402.48,404.31s36.2-.11,65.49-5.38c29.29-5.27,73.98-31.23,9.98-28.55-42.66,1.79-45.28,2.33-45.28,2.33l-30.19,31.6Z" fill="#fff" stroke="#231f20"></path>
      </g>
      <g id="Left">
        <path d="M449.27,166.34s-.05.09-.07.15c-.1.27-.02.5.04.57l.68-.73h0s-.65.01-.65.01Z" fill="none" stroke-width="0"></path>
        <path d="M449.27,166.34s-.05.09-.07.15c-.1.27-.02.5.04.57l.68-.73h0s-.65.01-.65.01Z" fill="none" stroke-width="0"></path>
        <path d="M369.96,520.16c-.09-.08-9.41-8.26-11.15-14.12-1.8-6.06-2.83-12.94-2.84-13.01l-.11-.73-.73-.11c-.33-.05-29-4.39-59.92-14.98-5-1.71-10.06-3.58-15.07-5.63-.56-.23-1.1-.45-1.65-.68-40.17-16.55-57.59-27.9-59.01-28.84l-8.35-9.12c-.45-24.78-2.79-66.51-13.33-70.84-10.96-4.51-18.39,8.61-23.82,18.19-1.61,2.85-3.01,5.3-4.23,6.85-1.34,1.69-2.07,2.25-2.4,2.44-.09-.42-.08-1.27.04-2.04,1.64-2.93,20.06-36.65,10.02-52.28-2.23-3.48-5.03-5.29-8.3-5.4-5.4-.16-10.82,4.51-14.1,8.96-8.98,12.15-16.87,18.7-19.01,20.38l-.89-.65c3.9-5.95,26.35-41.34,19.93-58.46-1.65-4.39-4.01-6.83-7.02-7.27-6.14-.89-12.52,7.12-13.74,8.74-5.56,7.43-16.9,15.16-20.23,17.34l-.38-.77c3.56-4.41,27.42-34.37,27.57-46.39.07-5.3-2.11-7.3-3.96-8.04-4.52-1.81-12,2.11-16.32,6.78-5,5.39-18.54,13.07-21.97,14.97l-.54-.8c4.14-3.54,25.07-21.71,31.32-32.03,4.02-6.63,5.68-16,1.73-19.38-1.97-1.69-5.88-2.38-13.35,3.9-12.21,10.25-21.51,14.64-24.62,15.95l-.18-1.19c3.83-2.91,27.99-21.41,34.58-30.66,4.26-6,5.32-12.22,2.58-15.13-1.31-1.39-4.59-3.07-11.76,1.41-9.68,6.03-20.28,9.72-24.37,11.02l.13-.45c3.19-1.49,22.63-10.78,31.19-19.23,11-10.87,9.2-13.73,8.62-14.67-1.59-2.54-6.83-2.09-16.96,1.49-11.21,3.95-14.98,4.86-16.23,5.05l-.2-.57c4.22-1.76,21.91-9.4,29.87-16.71,3.72-3.43,9.66-9.68,7.66-12.99-1.45-2.41-6.22-2.08-15.01,1.03-10.26,3.64-14.01,4.44-15.36,4.58l.02-1.47c3.6-1.03,19.23-5.75,29.01-13.08,6.08-4.55,8.85-8.9,7.42-11.63-.97-1.85-4.09-3.41-13.44-.29-8.66,2.9-12.19,3.73-13.59,3.96l.14-.8c4.17-1.21,27.29-8.25,33.2-17.23,2.26-3.42,2.79-5.72,1.66-7.24-1.46-1.95-5.17-1.85-12.42.36-4.73,1.44-9.93,1.59-12.26,1.56l.04-.17c3.14-.54,16.54-3.1,26.49-9.18,6.76-4.14,10.4-9.04,9.06-12.2-.41-.95-1.92-3.03-7.19-1.66-5.17,1.34-8.53,1.77-10.4,1.9l.35-.52c2.3-.53,13.78-3.27,21.67-7.39,6.02-3.16,10-7.94,9.07-10.88-.29-.93-1.31-2.4-4.85-1.93-3.77.5-6.58.48-8.33.35l2.62-2.23c1.41.06,6.16.11,12.16-1.41,5.36-1.37,11.13-7.31,10.65-10.97-.1-.77-.7-2.54-3.76-2.53-2.41.03-4.07.03-5.19.01l1.76-1.62c1.14.14,3.98.24,8.28-1.22.13-.05,13.48-4.76,13.49-9.08,0-.81-.43-1.93-2.48-2.65-1.34-.46-2.55-.82-3.6-1.07l2.05-.94c1.73.16,10.5.71,14.86-4.23,1.46-1.65,1.91-3.07,1.34-4.23-.48-.98-1.59-1.48-2.74-1.73l1.09-.67c1,.05,3.82-.02,7.95-1.99,5.04-2.4,29.68-20.42,32.95-24.1,1.06-1.18,3.68-3.15,10.13-5.78.42-.17,1.31-.53.98-1.44-.05-.15-.38-.89-1.41-.57-.49.15-2.23.68-4.28,1.28-13,2.59-81.08,18.1-144.94,69.53-18.57,14.95-45.47,40.3-68.11,76.13-21.28,33.67-33.73,68.51-37,103.55-6.49,69.63,18.37,120.65,40.36,151.19,23.83,33.09,49.57,49.96,49.83,50.12l.25.16,108.58.08c2.46,1.2,25.81,12.59,52.22,25.08,5.49,2.6,11.12,5.24,16.71,7.86,17.8,8.31,35.32,16.28,47.4,21.28,36.18,14.98,43.06,15.55,43.34,15.57l2.94.18-2.22-1.93Z" fill="#000" stroke-width="0"></path>
        <path d="M206.58,443.17s-44.04,3.96-90.93-6.64c-46.88-10.6-52.59-29.91-17.51-30.09,35.09-.15,59.81,1.64,59.81,1.64l48.62,35.09Z" fill="#fff" stroke="#231f20"></path>
        <path d="M122.1,369.65s-30.46-.1-57.28-6.6c-39.41-9.54-49.37-32.94-7.67-27.83,41.7,5.13,45.39,4.95,45.39,4.95l19.55,29.47Z" fill="#fff" stroke="#231f20"></path>
        <path d="M85.85,300.89s-33.61-5.72-53.6-17.42c-19.98-11.7-20.6-38.75,3.76-28.47,25.33,10.67,43.36,11.21,43.36,11.21l6.47,34.68Z" fill="#fff" stroke="#231f20"></path>
        <path d="M100.99,337.27s-27.3-3.61-50.54-10.6c-23.23-7.01-43.4-25.76-29.54-31.7,8.46-3.65,24.04-1.11,32.92.98,8.89,2.1,33.09,7.58,33.09,7.58l14.07,33.74Z" fill="#fff" stroke="#231f20"></path>
        <path d="M79.29,264.15s-21.23-3.89-41.42-19.35c-14.91-11.45-15.35-26.74-13.41-30.89,2.66-5.82,14.44-8.02,24.25.53,8.26,7.19,29.97,17.37,29.97,17.37l.62,32.34Z" fill="#fff" stroke="#231f20"></path>
        <path d="M79.15,228.84s-18.69-8.58-30.77-22.05c-12.09-13.47-17.02-28.68-4.82-30.69,8.39-1.39,16.67,6.72,20.19,9.54,3.54,2.81,19.32,13.2,19.32,13.2l-3.92,30.01Z" fill="#fff" stroke="#231f20"></path>
        <path d="M83.76,195.75s-24.43-15-29.89-23.06c-5.45-8.05-6.51-21.96,4.82-21.86,11.33.1,14.27,9.96,17.07,12.4,7.6,6.66,13.8,9.04,13.8,9.04l-5.8,23.48Z" fill="#fff" stroke="#231f20"></path>
        <path d="M102.53,141.47c-1.19,1.53-13.15-9.78-15.93-16.76-2.79-6.99-4.63-15.95,2.64-17.94,6.2-1.69,12.63,1.11,16.9,5.63,4.28,4.53,9.49,6.96,9.49,6.96,0,0-11.35,19.86-13.09,22.12" fill="#fff" stroke="#231f20"></path>
        <path d="M117.11,116.92s-10.91-6.46-14.73-13.94c-4.49-8.74.47-19.22,11.04-12.68,10.15,6.32,8.86,6.83,12.53,8.88,3.66,2.05,3.06,1.82,3.06,1.82l-11.9,15.91Z" fill="#fff" stroke="#231f20"></path>
        <path d="M130.38,99.26s-5.94-4.96-10.63-12.37c-3.87-6.14.99-23.33,14.94-11.96,8.28,6.75,9.71,8.79,9.71,8.79l-14.02,15.54Z" fill="#fff" stroke="#231f20"></path>
        <path d="M146.39,81.67s-5.42-4.86-7.96-11.51c-2.59-6.73.86-16.28,9.87-9.56,9.03,6.7,11.61,8.28,11.61,8.28l-13.52,12.8Z" fill="#fff" stroke="#231f20"></path>
        <path d="M162.13,66.77s-2.98-1.35-5.52-8c-2.59-6.74.86-16.28,9.86-9.57,9.03,6.71,9.17,6.35,9.17,6.35l-13.51,11.22Z" fill="#fff" stroke="#231f20"></path>
        <path d="M177.67,53.72s-1.88.96-4.43-5.68c-2.57-6.73.88-16.28,9.89-9.57,9.01,6.7,8.27,5.56,8.27,5.56l-13.73,9.7Z" fill="#fff" stroke="#231f20"></path>
        <path d="M91.28,168.24s-14.29-5.82-18.99-13.39c-4.73-7.57-8.28-19.47-2.37-27.57,4.35-5.99,12.55-3.32,16.55,2.1,4,5.41,6.01,8.25,10.52,11.59,4.51,3.35,3.97,3.83,3.97,3.83l-9.68,23.43Z" fill="#fff" stroke="#231f20"></path>
        <path d="M154.51,404.31s-36.2-.11-65.49-5.38c-29.29-5.27-73.99-31.23-9.96-28.55,42.63,1.79,45.27,2.33,45.27,2.33l30.18,31.6Z" fill="#fff" stroke="#231f20"></path>
        <path d="M102.53,141.47c-1.19,1.53-13.15-9.78-15.93-16.76-2.79-6.99-4.63-15.95,2.64-17.94,6.2-1.69,12.63,1.11,16.9,5.63,4.28,4.53,9.49,6.96,9.49,6.96,0,0-11.35,19.86-13.09,22.12" fill="#fff" stroke="#231f20"></path>
        <path d="M117.11,116.92s-10.91-6.46-14.73-13.94c-4.49-8.74.47-19.22,11.04-12.68,10.15,6.32,8.86,6.83,12.53,8.88,3.66,2.05,3.06,1.82,3.06,1.82l-11.9,15.91Z" fill="#fff" stroke="#231f20"></path>
        <path d="M146.39,81.67s-5.42-4.86-7.96-11.51c-2.59-6.73.86-16.28,9.87-9.56,9.03,6.7,11.61,8.28,11.61,8.28l-13.52,12.8Z" fill="#fff" stroke="#231f20"></path>
        <path d="M162.13,66.77s-2.98-1.35-5.52-8c-2.59-6.74.86-16.28,9.86-9.57,9.03,6.71,9.17,6.35,9.17,6.35l-13.51,11.22Z" fill="#fff" stroke="#231f20"></path>
        <path d="M177.67,53.72s-1.88.96-4.43-5.68c-2.57-6.73.88-16.28,9.89-9.57,9.01,6.7,8.27,5.56,8.27,5.56l-13.73,9.7Z" fill="#fff" stroke="#231f20"></path>
      </g>
    </g>
    <g id="CD_logo" data-name="CD logo">
      <path d="M145.42,196.17c0-72.94,59.47-132.07,132.84-132.07s132.83,59.13,132.83,132.07-59.47,132.07-132.83,132.07-132.84-59.14-132.84-132.07h0Z" fill="#000" stroke="#231f20" stroke-miterlimit="3.86" stroke-width="2"></path>
      <polygon points="169.91 228.56 278.16 80.7 389.89 228.66 169.91 228.56 169.91 228.56" fill="#fff" stroke-width="0"></polygon>
      <path d="M271.85,135.08c-.04,4.07.14,8.61.14,8.61-2.25.21-10.76-.3-23.25,10.21-11.9,10.01-13.48,21.32-14.15,29.64-.37,4.56,1.38,12.04,6.93,17.57,3.52,3.51,9.86,6.57,14.72,6.86,4.85.28,15.21-.86,15.21-.86v7.79s-14.47,1.17-18.43.57c-5.49-.84-17.87-6.71-22.14-15.31-4.58-9.21-5.14-16.05-4-23.26,1.15-7.22,7.87-21.01,12.28-25.41,7.61-7.6,14.3-10.57,19.96-13.06,3.49-1.53,7.94-2.93,12.73-3.35h0Z" fill="#231f20" stroke-width="0"></path>
      <path d="M271.85,135.08c-.04,4.07.14,8.61.14,8.61-2.25.21-10.76-.3-23.25,10.21-11.9,10.01-13.48,21.32-14.15,29.64-.37,4.56,1.38,12.04,6.93,17.57,3.52,3.51,9.86,6.57,14.72,6.86,4.85.28,15.21-.86,15.21-.86v7.79s-14.47,1.17-18.43.57c-5.49-.84-17.87-6.71-22.14-15.31-4.58-9.21-5.14-16.05-4-23.26,1.15-7.22,7.87-21.01,12.28-25.41,7.61-7.6,14.3-10.57,19.96-13.06,3.49-1.53,7.94-2.93,12.73-3.35h0Z" fill="none" stroke="#231f20" stroke-miterlimit="3.86" stroke-width=".53"></path>
      <path d="M292.25,146.4v60.03s11.5.56,17.86-3.61c5.29-3.45,9.89-11.08,10.25-19.45.29-6.48-.7-10.03-3.81-16.56-2.31-4.85-4.65-7.89-11.5-13.83-7.57-6.57-12.8-6.59-12.8-6.59h0ZM283.71,135.08l.09,79.83s14.2.09,19.37-.88c8.48-1.58,16.8-6.68,20.86-14.68,4.07-8,4.08-10.7,4.18-15.84.16-9.05-3.64-20.07-7.09-24.97-4.32-6.15-10.87-12.09-16.53-15.94-10.55-7.2-20.88-7.53-20.88-7.53h0Z" fill="#231f20" fill-rule="evenodd" stroke-width="0"></path>
      <path d="M292.25,146.4v60.03s11.5.56,17.86-3.61c5.29-3.45,9.89-11.08,10.25-19.45.29-6.48-.7-10.03-3.81-16.56-2.31-4.85-4.65-7.89-11.5-13.83-7.57-6.57-12.8-6.59-12.8-6.59h0ZM283.71,135.08l.09,79.83s14.2.09,19.37-.88c8.48-1.58,16.8-6.68,20.86-14.68,4.07-8,4.08-10.7,4.18-15.84.16-9.05-3.64-20.07-7.09-24.97-4.32-6.15-10.87-12.09-16.53-15.94-10.55-7.2-20.88-7.53-20.88-7.53h0Z" fill="none" stroke="#231f20" stroke-miterlimit="3.86" stroke-width=".53"></path>
      <path d="M247.79,243.67c-.05.03-1.16-.69-7.28-.73-6.53-.04-10.43,5.19-10.43,11.41s3.91,11.41,10.43,11.41c5.28,0,3.53-.01,7.28-.38l-.47-3.11c-1.93.45-3.3.56-6.8.38-4.66-.24-6.61-4.12-6.61-8.3s1.95-8.3,6.61-8.3c3.18,0,3.76.04,7.23.67l.05-3.06h0Z" fill="#fff" stroke-width="0"></path>
      <polygon points="258.44 265.25 262.26 265.25 262.26 243.46 258.44 243.46 258.44 265.25 258.44 265.25" fill="#fff" stroke-width="0"></polygon>
      <polygon points="276.91 265.25 281.15 265.25 288.59 243.46 284.71 243.46 279.13 260.7 279.07 260.7 273.61 243.46 269.64 243.46 276.91 265.25 276.91 265.25" fill="#fff" stroke-width="0"></polygon>
      <polygon points="295.94 265.25 299.75 265.25 299.75 243.46 295.94 243.46 295.94 265.25 295.94 265.25" fill="#fff" stroke-width="0"></polygon>
      <polygon points="309.6 265.25 324.5 265.25 324.5 261.95 313.42 261.95 313.42 243.46 309.6 243.46 309.6 265.25 309.6 265.25" fill="#fff" stroke-width="0"></polygon>
      <path d="M209.39,271.39l3.25,1.88c5.18,2.99,4.58,6.59,2.4,10.37-2.18,3.77-5,6.09-10.18,3.1l-3.25-1.88,7.77-13.47h0ZM196.76,285.64l7.82,4.52c5.81,3.35,10.76.58,13.76-4.62,3-5.2,2.93-10.88-2.88-14.23l-7.82-4.52-10.89,18.86h0Z" fill="#fff" fill-rule="evenodd" stroke-width="0"></path>
      <polygon points="222.82 298.81 238.02 303.46 238.98 300.31 227.43 296.77 229.29 290.68 239.8 293.89 240.7 290.91 230.2 287.7 231.87 282.25 243.22 285.72 244.18 282.57 229.18 277.98 222.82 298.81 222.82 298.81" fill="#fff" stroke-width="0"></polygon>
      <polygon points="247.93 305.18 251.73 305.64 252.9 296.04 262.68 297.25 263.06 294.16 253.28 292.96 253.97 287.29 265.12 288.66 265.52 285.39 250.59 283.56 247.93 305.18 247.93 305.18" fill="#fff" stroke-width="0"></polygon>
      <polygon points="272.37 307.22 288.27 306.94 288.21 303.65 276.12 303.86 276.01 297.48 287 297.29 286.94 294.18 275.95 294.37 275.85 288.66 287.72 288.46 287.66 285.17 271.99 285.44 272.37 307.22 272.37 307.22" fill="#fff" stroke-width="0"></polygon>
      <polygon points="297.7 306.07 301.29 305.57 299.06 289.71 299.15 289.7 311.2 304.18 315.19 303.62 312.16 282.05 308.56 282.55 310.79 298.44 310.73 298.45 298.65 283.94 294.67 284.51 297.7 306.07 297.7 306.07" fill="#fff" stroke-width="0"></polygon>
      <polygon points="353.62 290.02 366.79 281.13 364.95 278.4 354.94 285.15 351.37 279.87 360.47 273.73 358.74 271.15 349.63 277.29 346.44 272.56 356.28 265.92 354.43 263.19 341.44 271.96 353.62 290.02 353.62 290.02" fill="#fff" stroke-width="0"></polygon>
      <path d="M332.95,274.39c-.03.05-1.34-.04-6.72,2.9-5.72,3.13-6.61,9.6-3.59,15.04,3.02,5.45,8.95,8.09,14.66,4.92,4.62-2.56,3.08-1.72,6.17-3.86l-1.92-2.49c-1.47,1.33-2.6,2.08-5.75,3.63-4.2,2.06-7.79-.39-9.82-4.04-2.02-3.66-2.31-8.21,1.77-10.47,2.77-1.54,3.32-1.79,6.64-2.92l-1.43-2.7h0Z" fill="#fff" stroke-width="0"></path>
    </g>
  </g>
</svg>